<svg version="1.0" xmlns="http://www.w3.org/2000/svg" width="200" height="200" viewBox="0 0 500.000000 500.000000" preserveAspectRatio="xMidYMid meet">
  <!-- Circle background in soft pink -->
  <g transform="translate(0.000000,500.000000) scale(0.066667,-0.066667)" fill="#ffc2d1" stroke="none">
    <path d="M3412 6217 c-1557 -227 -2525 -1796 -2018 -3269 639 -1857 3069 -2281 4299 -750 789 982 717 2392 -170 3297 -543 556 -1353 833 -2111 722z m676 -189 c370 -48 727 -198 1104 -466 380 -270 729 -820 830 -1308 32 -155 33 -860 1 -1009 -305 -1448 -1962 -2218 -3323 -1543 -558 276 -950 731 -1159 1347 l-62 184 -6 473 c-6 518 0 569 97 832 43 116 166 370 211 436 16 24 51 77 79 119 283 422 733 740 1230 868 370 95 640 113 998 67z"/>
  </g>
  <!-- CC letters in hot pink -->
  <g transform="translate(0.000000,500.000000) scale(0.066667,-0.066667)" fill="#EB1982" stroke="none">
    <path d="M2872 5545 c-817 -269 -1018 -1597 -361 -2384 338 -406 808 -372 1098 79 l43 68 10 -109 c42 -455 431 -1035 744 -1108 388 -92 590 57 931 684 307 566 329 617 279 636 -78 30 -87 21 -243 -265 -443 -810 -556 -953 -767 -968 -519 -38 -740 1494 -312 2161 168 261 521 140 640 -220 18 -53 43 -100 56 -105 296 -114 183 486 -125 657 -497 278 -1075 -171 -1203 -935 -30 -178 -122 -361 -287 -568 -224 -279 -501 -237 -656 100 -325 702 -151 2028 266 2027 173 -1 435 -245 435 -406 0 -65 136 -101 186 -50 52 52 20 301 -56 430 -130 223 -448 352 -678 276z"/>
  </g>
</svg>