<svg version="1.0" xmlns="http://www.w3.org/2000/svg" width="996.000000pt" height="405.000000pt" viewBox="0 0 996.000000 405.000000" preserveAspectRatio="xMidYMid meet"> <g transform="translate(0.000000,405.000000) scale(0.100000,-0.100000)" fill="#EB1982" stroke="none"> <path d="M2705 2911 c-139 -36 -227 -179 -302 -491 l-17 -75 -1 -245 0 -245 -12 -20 c-6 -11 -34 -74 -62 -140 -91 -219 -154 -326 -177 -303 -19 19 -27 121 -33 408 l-6 315 -19 45 c-11 25 -31 54 -44 65 l-25 18 -45 -1 c-83 -1 -150 -62 -232 -214 -23 -43 -46 -78 -51 -78 l-10 0 4 113 c2 61 9 148 15 192 6 44 17 157 23 250 7 94 14 197 16 229 l5 60 -18 13 -18 13 -52 0 -51 0 -25 -19 -24 -20 -12 -53 c-31 -147 -60 -397 -71 -598 l-7 -135 -13 -25 c-8 -14 -18 -32 -22 -40 -5 -8 -15 -28 -23 -45 -8 -16 -28 -51 -43 -77 -212 -355 -255 -410 -349 -443 l-50 -18 -35 18 c-134 68 -191 208 -228 560 l-9 80 9 85 c12 120 26 199 37 213 5 7 12 26 15 42 10 56 38 120 77 171 l38 51 32 13 31 13 41 -14 c86 -28 148 -93 178 -188 18 -55 34 -71 70 -71 142 0 54 291 -115 381 l-40 22 -91 4 -91 5 -54 -26 c-142 -68 -235 -173 -309 -351 -13 -32 -31 -105 -42 -175 l-10 -65 5 -135 c2 -74 9 -146 15 -160 6 -14 20 -56 32 -95 12 -38 26 -74 30 -80 4 -5 24 -41 45 -80 20 -38 44 -77 51 -86 8 -8 14 -20 14 -26 0 -19 147 -137 192 -155 l43 -17 73 0 c40 -1 80 3 90 8 9 4 34 16 55 26 20 10 61 42 89 71 51 52 72 86 167 269 57 109 82 148 90 140 3 -4 9 -61 13 -128 3 -67 9 -144 13 -172 l7 -50 21 -22 20 -23 43 0 42 0 13 17 c8 9 19 50 26 92 14 86 26 142 41 186 6 17 18 55 28 85 37 117 167 351 202 365 l16 6 14 -15 15 -15 4 -318 4 -318 10 -40 c6 -22 20 -60 32 -83 l22 -44 27 -14 c104 -54 208 31 282 234 38 101 51 128 72 151 l23 24 6 -29 c15 -72 39 -142 61 -179 13 -22 28 -49 33 -60 5 -11 22 -32 37 -46 l29 -27 55 -15 55 -16 53 14 c96 25 130 62 210 222 19 38 41 90 58 136 l17 48 11 -4 c6 -2 14 -19 18 -38 10 -54 30 -101 70 -165 l37 -59 52 -34 52 -34 61 -4 62 -5 46 21 46 21 41 47 c23 26 64 81 91 122 88 137 143 211 151 205 5 -3 9 -38 9 -79 0 -41 4 -76 9 -80 5 -3 13 -20 16 -38 4 -17 19 -44 33 -59 l26 -28 42 0 41 0 27 21 c31 24 92 106 121 162 11 20 24 36 30 34 l10 -4 6 -89 c10 -155 46 -305 87 -361 l24 -33 37 -10 c138 -38 163 -13 346 355 l117 233 -7 21 c-3 11 -15 23 -27 27 l-20 6 -23 -12 c-12 -6 -30 -30 -40 -53 -36 -85 -165 -345 -201 -405 l-36 -62 -20 0 -20 0 5 183 c3 100 10 286 17 412 6 127 8 240 5 252 l-5 22 -180 -2 -179 -3 -54 -37 c-84 -58 -142 -141 -162 -235 -8 -40 -29 -62 -59 -62 l-22 0 -34 -42 c-19 -23 -53 -67 -75 -98 -53 -74 -153 -197 -189 -232 l-28 -28 -23 0 c-51 0 -79 56 -110 217 -8 43 -15 93 -15 111 l0 32 33 20 c17 11 38 20 45 20 7 0 35 17 63 38 l51 37 33 60 33 60 6 58 6 57 -15 37 c-32 75 -86 113 -162 113 l-48 0 -36 -19 c-53 -28 -139 -121 -139 -148 0 -5 -5 -14 -12 -21 -23 -23 -49 -114 -65 -222 l-6 -45 -27 -31 c-15 -17 -36 -51 -48 -75 -39 -83 -123 -254 -139 -284 -9 -16 -31 -45 -49 -62 l-33 -33 -25 0 -25 0 -19 28 c-40 58 -92 239 -92 321 l0 63 29 37 c59 75 211 348 211 378 0 4 13 34 29 67 58 121 74 201 73 352 l-1 102 -20 41 -21 41 -38 25 -38 25 -44 4 c-25 3 -58 1 -75 -3z m88 -129 l18 -31 6 -73 c8 -111 -16 -263 -57 -353 -5 -11 -21 -51 -35 -90 -43 -111 -100 -229 -119 -244 l-18 -15 -9 15 -10 14 5 130 c5 133 28 323 47 385 6 19 15 49 20 65 6 17 21 64 34 106 l25 76 25 27 c30 33 44 30 68 -12z m608 -544 l11 -21 -4 -62 c-6 -63 -23 -106 -65 -162 l-24 -33 -19 0 c-29 0 -31 12 -16 91 14 77 28 121 54 177 l15 32 18 0 c10 0 24 -10 30 -22z m789 -89 l12 -20 -7 -42 c-4 -23 -21 -71 -38 -107 -17 -36 -38 -81 -46 -100 -9 -19 -35 -67 -58 -107 -24 -41 -43 -76 -43 -79 0 -17 -44 -64 -60 -64 -31 0 -42 98 -19 185 6 22 14 56 18 75 37 168 198 340 241 259z"/> <path d="M5830 2709 c-103 -50 -260 -197 -260 -243 0 -3 -13 -34 -29 -68 -15 -35 -36 -83 -45 -108 l-16 -46 -8 -114 -8 -115 8 -95 c5 -52 12 -104 17 -115 5 -11 18 -47 30 -80 12 -33 27 -67 32 -75 5 -8 12 -22 15 -30 34 -87 107 -188 188 -258 l58 -51 46 -15 46 -16 68 0 c38 0 76 4 86 9 9 4 34 16 55 26 89 43 149 125 283 385 44 87 58 88 67 8 6 -59 30 -114 61 -140 l21 -17 35 -1 c61 0 127 64 179 173 41 85 46 73 75 -208 10 -95 54 -207 91 -231 13 -8 47 -18 77 -20 l53 -5 35 18 c19 10 47 36 62 58 42 61 218 423 218 449 0 7 7 19 16 26 l15 13 -3 31 -3 31 -29 0 -29 0 -41 -80 c-23 -44 -50 -100 -61 -125 -31 -68 -133 -251 -160 -284 l-23 -29 -11 22 -12 22 10 283 c6 156 15 326 21 378 l11 94 -9 39 -8 40 -174 -1 -175 0 -40 -21 c-55 -29 -119 -92 -146 -144 -12 -24 -34 -59 -49 -79 -16 -19 -45 -69 -66 -110 -20 -41 -47 -88 -59 -105 -12 -16 -32 -50 -45 -75 -102 -202 -245 -360 -326 -360 -61 0 -141 70 -174 152 -12 29 -28 67 -35 83 -40 94 -53 177 -62 390 l-5 140 11 70 c31 183 110 353 183 391 l29 15 56 -16 56 -16 46 -48 46 -48 19 -49 c10 -27 25 -59 33 -71 l13 -23 34 0 33 0 16 18 17 19 0 49 c0 120 -73 237 -185 297 l-40 21 -95 3 -95 3 -45 -21z m1008 -555 c26 -18 28 -40 6 -91 -58 -133 -110 -241 -135 -283 -11 -19 -31 -53 -42 -75 -42 -78 -66 -93 -88 -54 l-11 22 12 96 c7 53 18 112 25 131 47 125 60 153 93 190 61 72 102 91 140 64z"/> <path d="M7490 2377 l-25 -13 -7 -109 c-4 -61 -12 -153 -18 -205 -5 -52 -10 -124 -10 -160 0 -36 -6 -96 -14 -135 -16 -73 -34 -197 -43 -278 l-5 -48 12 -14 c7 -8 25 -15 41 -15 l29 0 14 23 c13 19 37 138 52 257 3 19 11 73 19 120 24 148 37 252 44 357 3 56 11 107 16 112 l11 11 67 -8 c84 -10 82 -9 69 -89 -6 -38 -18 -122 -27 -188 l-17 -120 4 -200 4 -200 12 -43 c17 -61 48 -118 83 -155 l31 -32 78 -3 78 -4 35 17 35 16 59 83 c32 46 74 118 92 162 18 43 39 94 47 112 8 18 14 41 14 52 0 10 11 32 24 47 l24 28 6 -30 c4 -16 14 -55 23 -85 l17 -55 43 -56 42 -57 43 -22 43 -21 60 -6 61 -5 44 20 c51 23 90 61 146 142 21 30 44 61 51 69 8 8 22 26 31 40 9 14 42 60 72 101 31 41 59 83 63 92 l6 18 -23 15 -24 16 -26 -7 -26 -6 -41 -62 c-86 -125 -208 -283 -248 -319 l-41 -37 -29 15 -29 15 -20 62 c-44 142 -52 177 -52 231 l0 56 30 16 c16 8 35 15 42 15 26 0 107 65 134 107 90 144 79 261 -33 335 l-28 18 -52 0 c-127 0 -236 -119 -278 -303 l-13 -58 -21 -23 c-12 -12 -21 -28 -21 -35 0 -7 -5 -22 -12 -34 -12 -22 -60 -154 -80 -217 -30 -101 -126 -284 -177 -340 l-47 -51 -16 18 c-9 10 -24 54 -33 97 l-16 79 4 146 c6 166 20 317 35 376 20 74 43 241 36 258 -3 10 -19 24 -35 32 l-28 15 -94 0 -94 0 -74 24 c-41 13 -85 26 -99 29 l-25 6 -25 -12z m1150 -147 l13 -30 -5 -44 c-9 -81 -85 -206 -124 -206 l-14 0 0 44 c0 24 7 57 15 72 8 16 15 39 15 50 0 21 19 75 42 122 6 12 19 22 28 22 l18 0 12 -30z"/> </g> </svg>